<?xml version="1.0" standalone="no"?>
<!DOCTYPE svg PUBLIC "-//W3C//DTD SVG 1.1//EN" "http://www.w3.org/Graphics/SVG/1.1/DTD/svg11.dtd" >
<svg xmlns="http://www.w3.org/2000/svg">
<metadata>
Created by FontForge 20120731 at Tue Apr 11 18:03:32 2017
 By admin
</metadata>
<defs>
<font id="icon-font" horiz-adv-x="1024" >
  <font-face 
    font-family="icon-font"
    font-weight="500"
    font-stretch="normal"
    units-per-em="1024"
    panose-1="2 0 6 3 0 0 0 0 0 0"
    ascent="896"
    descent="-128"
    x-height="792"
    bbox="0 -128.5 1024 896.633"
    underline-thickness="0"
    underline-position="0"
    unicode-range="U+0078-E69D"
  />
<missing-glyph 
 />
    <glyph glyph-name=".notdef" 
 />
    <glyph glyph-name=".notdef" 
 />
    <glyph glyph-name=".null" horiz-adv-x="0" 
 />
    <glyph glyph-name="nonmarkingreturn" horiz-adv-x="341" 
 />
    <glyph glyph-name="x" unicode="x" horiz-adv-x="1001" 
d="M281 543q-27 -1 -53 -1h-83q-18 0 -36.5 -6t-32.5 -18.5t-23 -32t-9 -45.5v-76h912v41q0 16 -0.5 30t-0.5 18q0 13 -5 29t-17 29.5t-31.5 22.5t-49.5 9h-133v-97h-438v97zM955 310v-52q0 -23 0.5 -52t0.5 -58t-10.5 -47.5t-26 -30t-33 -16t-31.5 -4.5q-14 -1 -29.5 -0.5
t-29.5 0.5h-32l-45 128h-439l-44 -128h-29h-34q-20 0 -45 1q-25 0 -41 9.5t-25.5 23t-13.5 29.5t-4 30v167h911zM163 247q-12 0 -21 -8.5t-9 -21.5t9 -21.5t21 -8.5q13 0 22 8.5t9 21.5t-9 21.5t-22 8.5zM316 123q-8 -26 -14 -48q-5 -19 -10.5 -37t-7.5 -25t-3 -15t1 -14.5
t9.5 -10.5t21.5 -4h37h67h81h80h64h36q23 0 34 12t2 38q-5 13 -9.5 30.5t-9.5 34.5q-5 19 -11 39h-368zM336 498v228q0 11 2.5 23t10 21.5t20.5 15.5t34 6h188q31 0 51.5 -14.5t20.5 -52.5v-227h-327z" />
    <glyph glyph-name="arrow-right" unicode="&#xe674;" 
d="M738 381l-423 423q-6 6 -14.5 6t-14.5 -6t-6 -15t6 -15l408 -408l-408 -408q-6 -7 -6 -15.5t6 -14.5t14.5 -6t14.5 6l423 423q6 6 6 15t-6 15z" />
    <glyph glyph-name="checkbox-off" unicode="&#xe675;" 
d="M874 874h-724q-53 0 -90.5 -37.5t-37.5 -90.5v-724q0 -53 37.5 -90.5t90.5 -37.5h724q53 0 90.5 37.5t37.5 90.5v724q0 53 -37.5 90.5t-90.5 37.5zM960 32q0 -40 -28 -68t-68 -28h-704q-40 0 -68 28t-28 68v704q0 40 28 68t68 28h704q40 0 68 -28t28 -68v-704z" />
    <glyph glyph-name="cancel" unicode="&#xe676;" 
d="M601 483h-258l68 68q6 7 6 15.5t-6 14.5t-14.5 6t-14.5 -6l-104 -104q-6 -6 -6 -14v-1v0q0 -8 6 -15l104 -103q6 -6 14.5 -6t14.5 6t6 14.5t-6 14.5l-68 68h258q45 0 77 -32t32 -77t-32 -77t-77 -32h-215q-18 -3 -18 -21.5t18 -20.5h215q62 0 106.5 44.5t44.5 106.5
t-44.5 106.5t-106.5 44.5v0zM512 864q-198 0 -339 -141t-141 -339t141 -339t339 -141t339 141t141 339t-141 339t-339 141zM512 -55q-89 0 -170.5 35t-140 93.5t-93.5 140t-35 170.5t35 170.5t93.5 140t140 93.5t170.5 35t170.5 -35t140 -93.5t93.5 -140t35 -170.5
t-35 -170.5t-93.5 -140t-140 -93.5t-170.5 -35z" />
    <glyph glyph-name="bank-card" unicode="&#xe677;" 
d="M874 768h-724q-53 0 -90.5 -37.5t-37.5 -90.5v-512q0 -53 37.5 -90.5t90.5 -37.5h724q53 0 90.5 37.5t37.5 90.5v512q0 53 -37.5 90.5t-90.5 37.5zM160 726h704q40 0 68 -28t28 -68v-130h-896v130q0 40 28 68t68 28zM864 42h-704q-40 0 -68 28t-28 68v321h896v-321
q0 -40 -28 -68t-68 -28zM573 332q-6 7 -14.5 7t-15.5 -6l-136 -136q-6 -6 -6 -14.5t6 -14.5t15 -6t15 6l136 135q6 6 6 14.5t-6 15.5v-1zM726 332q-6 7 -15 7t-15 -6l-136 -136q-6 -6 -6 -14.5t6 -14.5t14.5 -6t14.5 6l137 135q6 6 6 14.5t-6 15.5v-1zM849 333l-136 -136
q-6 -6 -6 -14.5t6 -14.5t14.5 -6t14.5 6l136 135q6 6 6 14.5t-6 15t-14.5 6.5t-14.5 -6v0z" />
    <glyph glyph-name="checkbox-on" unicode="&#xe678;" 
d="M874 874h-724q-53 0 -90.5 -37.5t-37.5 -90.5v-724q0 -53 37.5 -90.5t90.5 -37.5h724q53 0 90.5 37.5t37.5 90.5v724q0 53 -37.5 90.5t-90.5 37.5zM960 32q0 -40 -28 -68t-68 -28h-704q-40 0 -68 28t-28 68v704q0 40 28 68t68 28h704q40 0 68 -28t28 -68v-704zM728 552
l-284 -316l-149 134q-6 4 -13 4q-9 0 -15 -6t-6 -14.5t6 -14.5l164 -148q7 -5 15.5 -4.5t14.5 6.5l297 331q6 6 6 14q0 9 -6 15t-15 6t-15 -7v0z" />
    <glyph glyph-name="camera" unicode="&#xe679;" 
d="M896 683h-62v9q0 53 -37.5 90.5t-90.5 37.5h-388q-53 0 -90.5 -37.5t-37.5 -90.5v-9h-62q-53 0 -90.5 -38t-37.5 -90v-454q0 -52 37.5 -90t90.5 -38h768q53 0 90.5 38t37.5 90v454q0 52 -37.5 90t-90.5 38zM981 111q0 -39 -28.5 -67.5t-67.5 -28.5h-747q-40 0 -68 28.5
t-28 67.5v434q0 40 28 68t68 28h93v41q0 40 28.5 68t67.5 28h368q40 0 68 -28t28 -68v-41h94q39 0 67.5 -28t28.5 -68v-434zM891 575h-80q-9 0 -15 -6t-6 -14.5t6 -14.5t15 -6h80q8 0 14.5 6t6.5 14.5t-6.5 14.5t-14.5 6v0zM512 605q-101 0 -173 -72t-72 -173t72 -173
t173 -72t173 72t72 173t-72 173t-173 72zM512 157q-84 0 -143.5 59.5t-59.5 143.5t59.5 143.5t143.5 59.5t143.5 -59.5t59.5 -143.5t-59.5 -143.5t-143.5 -59.5z" />
    <glyph glyph-name="circle" unicode="&#xe67a;" 
d="M512 863q-97 0 -185.5 -38.5t-153 -103t-103 -153.5t-38.5 -185.5t38.5 -185t103 -153t153 -103t185.5 -38.5t185.5 37.5t153 101t103 153t38.5 188.5q0 96 -38.5 185t-103 153.5t-153 103t-185.5 38.5zM512 159q-93 0 -158.5 65.5t-65.5 158t65.5 158.5t158.5 66
t158.5 -66t65.5 -158.5t-65.5 -158t-158.5 -65.5z" />
    <glyph glyph-name="close-revert" unicode="&#xe67b;" 
d="M512 869q-98 0 -188 -38.5t-155 -103.5t-103.5 -155t-38.5 -188t38.5 -188t103.5 -155t155 -103.5t188 -38.5t188 38.5t155 103.5t103.5 155t38.5 188t-38.5 188t-103.5 155t-155 103.5t-188 38.5zM738 158q-6 -6 -14.5 -6t-14.5 6l-198 197l-197 -197q-6 -5 -13 -5
q-9 0 -14.5 5.5t-5.5 14.5q0 7 5 13l197 197l-197 198q-6 6 -6 14.5t6 14.5t14.5 6t14.5 -6l198 -197l197 197q6 6 14.5 6t14 -6t5.5 -14t-6 -14l-197 -197l197 -198q6 -6 6 -14.5t-6 -14.5v0z" />
    <glyph glyph-name="close" unicode="&#xe67c;" 
d="M541 384l424 423q6 6 6 15t-6.5 15t-15 6t-14.5 -6l-423 -424l-423 423q-6 7 -14.5 7t-15 -6.5t-6.5 -15t6 -14.5l424 -423l-423 -423q-7 -6 -7 -15t6.5 -15t15 -6t14.5 6l423 424l423 -424q6 -6 15 -6t15 6.5t6 15t-6 14.5z" />
    <glyph glyph-name="editor" unicode="&#xe67d;" 
d="M982 557h-2q-8 0 -14 -6t-6 -15v-503q0 -40 -28 -68t-68 -28h-704q-40 0 -68 28t-28 68v704q0 39 28 67.5t68 28.5h503v0q8 0 14 6t6 14v1v0q0 9 -6 14.5t-14 5.5h-513q-53 0 -90.5 -37.5t-37.5 -90.5v-723q0 -53 37.5 -90.5t90.5 -37.5h724q53 0 90.5 37.5t37.5 90.5
v513q0 9 -6 15t-14 6zM314 192q6 -6 14.5 -6t14.5 6l650 649q6 6 6 15t-6 15t-15 6t-15 -6l-649 -650q-6 -6 -6 -14.5t6 -14.5v0z" />
    <glyph glyph-name="fail" unicode="&#xe67e;" 
d="M983 583q-9 18 -29 12q-17 -9 -11 -28q56 -134 29 -274t-129 -242q-67 -67 -155 -102.5t-177 -35.5t-176.5 35.5t-155 102.5t-102.5 155t-35 177t35 177t102 155q94 94 222.5 125t254.5 -10q9 -3 16.5 1.5t10.5 13t-1 16t-13 10.5q-137 45 -277 11t-242 -136
q-74 -74 -112 -169.5t-38 -192.5t38 -193t112 -169q98 -98 230 -133t264 0t230 133q110 111 140 263.5t-31 297.5zM494 431l-166 166q-14 14 -30 3q-7 -6 -7.5 -15.5t6.5 -15.5l167 -167q8 -8 8 -18t-8 -18l-166 -166q-14 -14 -2 -30q5 -8 15 -8q7 0 15 7l168 167q8 8 18 8
t18 -8l167 -167q7 -7 16 -7t15 8q6 7 5 15.5t-8 14.5l-166 166q-8 8 -8 18t8 18l166 166q14 14 3 29q-6 8 -15.5 8t-15.5 -6l-167 -168q-8 -7 -18 -7t-18 7z" />
    <glyph glyph-name="form" unicode="&#xe67f;" 
d="M289 471q-8 0 -14 -6t-7 -14v-1q0 -8 6.5 -14t14.5 -6h471q8 0 14 6t6 14v1q0 8 -6 14t-14 6h-471v0zM760 302h-471q-8 0 -14 -6t-7 -15v0q0 -9 6.5 -15t14.5 -6h471q8 0 14 6t6 15v0q0 9 -6 15t-14 6v0zM504 132h-215q-8 0 -14.5 -6t-6.5 -14.5t6.5 -14.5t14.5 -6h215
q8 0 13.5 6t5.5 14t-5.5 14.5t-13.5 6.5zM632 874h-373q-53 0 -90.5 -37.5t-37.5 -90.5v-724q0 -53 37.5 -90.5t90.5 -37.5h531q53 0 90.5 37.5t37.5 90.5v566zM674 773l144 -143h-56q-36 0 -62 25.5t-26 61.5v56v0zM876 32q0 -40 -28 -68t-68 -28h-512q-39 0 -67.5 28
t-28.5 68v704q0 40 28.5 68t67.5 28h364v-115q0 -53 38 -91t92 -38h114v-556z" />
    <glyph glyph-name="decoration" unicode="&#xe680;" 
d="M991 182l-1 1l-72 72l25 25q38 38 38 92t-38 92l-359 359q-16 16 -43 27t-49 11v0q-54 0 -92 -38l-88 -88q-38 -38 -38 -91.5t38 -91.5l359 -360q38 -38 92 -38t92 38l34 34l58 -58l-194 -194l-328 327q0 1 -0.5 1h-0.5v0.5v0.5l-2 1q-5 6 -13.5 6t-14.5 -6l-100 -101
l-17 17q-24 24 -59 24t-59 -24l-108 -108q-24 -24 -24 -59t24 -59l62 -63q25 -24 60 -24t59 24l108 108q24 24 24 59t-24 60l-17 16l86 85l328 -328v-1l2 -1q5 -6 13.5 -6t14.5 6l224 224v0v0l1 1q5 5 5 13.5t-5 14.5h-1zM826 222q-11 -11 -29 -18.5t-33 -7.5h-1
q-36 0 -62 26l-360 359q-10 11 -17.5 29t-7.5 33.5t7.5 33.5t17.5 29l88 88q11 10 29 18t33 8h1q36 0 62 -26l360 -360q10 -10 17.5 -28.5t7.5 -33.5t-7.5 -33.5t-17.5 -28.5l-88 -88v0zM317 62l-107 -108q-16 -15 -37 -15v0v0q-22 0 -37 15l-62 62q-15 15 -15 37v0
q0 22 15 37l107 107q15 15 37 15t37 -15l62 -62q15 -15 15 -36.5t-15 -36.5zM499 666q-7 6 -15.5 6t-14.5 -6t-6 -14.5t6 -14.5l287 -288q7 -6 15.5 -6t14.5 6t6 15t-6 15z" />
    <glyph glyph-name="headphone" unicode="&#xe681;" 
d="M1022 374q-2 101 -43.5 194t-109.5 159.5t-161.5 106t-195.5 39.5t-195.5 -39.5t-161.5 -106.5t-109.5 -159.5t-43.5 -193.5v-248q0 -38 27 -65.5t66 -27.5h70q38 1 65 28t27 65v167q0 38 -27 65t-65 27h-70q-26 0 -49 -14q1 94 39 178.5t100 146t147.5 97.5t179.5 36
t179.5 -36t147.5 -97.5t100 -146t39 -178.5q-22 14 -48 14h-70q-39 0 -66 -27t-27 -65v-167q0 -32 20 -57t51 -33l-228 -91v11q0 6 -4.5 10.5t-11.5 4.5h-126v0q-7 0 -11.5 -4.5t-4.5 -10.5v-46q0 -6 4.5 -10.5t11.5 -4.5h126h1.5h0.5h1l350 140q31 6 53 32.5t23 58.5v167z
M95 344h70q21 0 36 -15t15 -36v-167q0 -21 -15 -36t-36 -15h-70q-22 0 -36.5 15t-14.5 36v167q0 21 14.5 36t36.5 15zM981 227v-101q0 -21 -15 -36t-36 -15h-70q-21 0 -36 15t-15 36v167q0 21 15 36t36 15h70q21 0 36 -15t15 -36v-66v0z" />
    <glyph glyph-name="info-revert" unicode="&#xe682;" 
d="M512 869q-98 0 -188 -38.5t-155 -103.5t-103.5 -155t-38.5 -188t38.5 -188t103.5 -155t155 -103.5t188 -38.5t188 38.5t155 103.5t103.5 155t38.5 188t-38.5 188t-103.5 155t-155 103.5t-188 38.5zM534 148q0 -10 -6.5 -16.5t-15.5 -6.5t-15.5 6.5t-6.5 16.5v344
q0 9 6.5 15.5t15.5 6.5t15.5 -6.5t6.5 -15.5v-344zM512 553q-11 0 -18.5 7.5t-7.5 18t7.5 18t18.5 7.5t18.5 -7.5t7.5 -18t-7.5 -18t-18.5 -7.5z" />
    <glyph glyph-name="history" unicode="&#xe683;" 
d="M512 869q-98 0 -188 -38.5t-155 -103.5t-103.5 -155t-38.5 -188t38.5 -188t103.5 -155t155 -103.5t188 -38.5t188 38.5t155 103.5t103.5 155t38.5 188t-38.5 188t-103.5 155t-155 103.5t-188 38.5zM512 -59q-90 0 -172 35t-141.5 94.5t-94.5 141.5t-35 172t35 172
t94.5 141.5t141.5 94.5t172 35t172 -35t141.5 -94.5t94.5 -141.5t35 -172t-35 -172t-94.5 -141.5t-141.5 -94.5t-172 -35zM856 413h-322v321q0 10 -6.5 16.5t-15.5 6.5t-15.5 -6.5t-6.5 -16.5v-344q0 -9 6.5 -15.5t15.5 -6.5h344q9 0 15.5 6.5t6.5 16t-6.5 16t-15.5 6.5z
" />
    <glyph glyph-name="house" unicode="&#xe684;" 
d="M1001 330l-474 475q-6 6 -14.5 6t-14.5 -6v-1h-1l-474 -474q-6 -6 -6 -14v-1q0 -9 6 -15t14 -6h114v-316q0 -9 6 -15t15 -6h239q9 0 14.5 6t5.5 15v275h163v-275q0 -9 6 -15t14 -6h239q9 0 15 6t6 15v296q0 8 -6 14t-15 6h-1q-8 0 -14 -5.5t-6 -14.5v-275h-197v275
q0 9 -6 14.5t-14 5.5h-205q-8 0 -14 -5.5t-6 -14.5v-275h-197v317q0 8 -6 14t-14 6h-85l424 424l460 -460q6 -6 14.5 -6t14.5 6l1 1q5 6 5 14.5t-5 14.5h-1z" />
    <glyph glyph-name="info" unicode="&#xe685;" 
d="M512 869q-98 0 -188 -38.5t-155 -103.5t-103.5 -155t-38.5 -188t38.5 -188t103.5 -155t155 -103.5t188 -38.5t188 38.5t155 103.5t103.5 155t38.5 188t-38.5 188t-103.5 155t-155 103.5t-188 38.5zM512 -59q-90 0 -172 35t-141.5 94.5t-94.5 141.5t-35 172t35 172
t94.5 141.5t141.5 94.5t172 35t172 -35t141.5 -94.5t94.5 -141.5t35 -172t-35 -172t-94.5 -141.5t-141.5 -94.5t-172 -35zM512 579zM486 578.5q0 -10.5 7.5 -18t18.5 -7.5t18.5 7.5t7.5 18t-7.5 18t-18.5 7.5t-18.5 -7.5t-7.5 -18zM512 514q-9 0 -15.5 -6.5t-6.5 -15.5v-344
q0 -10 6.5 -16.5t15.5 -6.5t15.5 6.5t6.5 16.5v344q0 9 -6.5 15.5t-15.5 6.5z" />
    <glyph glyph-name="location" unicode="&#xe686;" 
d="M512 691q-91 0 -157.5 -66.5t-66.5 -157.5t66.5 -157.5t157.5 -66.5t157.5 66.5t66.5 157.5t-66.5 157.5t-157.5 66.5zM512 286q-76 0 -128.5 52.5t-52.5 128.5t52.5 128.5t128.5 52.5t128.5 -52.5t52.5 -128.5t-52.5 -128.5t-128.5 -52.5zM512 885q-114 0 -211 -56.5
t-154 -153t-57 -210.5q-1 -17 1 -41q1 -8 3 -20q8 -56 40.5 -124t71.5 -109q53 -60 110.5 -122.5t84.5 -91.5t31 -33q37 -40 79 -41h2q41 0 76 37q185 194 241 265q43 49 73.5 130.5t30.5 147.5q0 114 -56.5 211.5t-153.5 154t-212 56.5v0zM799 212l-4 -4q-56 -71 -235 -257
l-2 -2q-24 -26 -46 -24q-24 0 -50 28q-116 122 -228 249q-34 37 -63 97.5t-36 110.5l-2 18q-2 16 -2 32v4q1 103 52 190t138.5 138t190.5 51t191 -51t139 -138.5t51 -190.5q0 -60 -27.5 -133t-66.5 -118z" />
    <glyph glyph-name="ok" unicode="&#xe687;" 
d="M512 864q-129 0 -239.5 -65t-175.5 -175.5t-65 -239.5t65 -239.5t175.5 -175.5t239.5 -65q198 0 339 140t141 340q0 129 -65 239.5t-175.5 175.5t-239.5 65zM772 497l-294 -294q-14 -14 -34 -14t-34 14l-158 158q-14 14 -14 34t14 34t34 14t34 -14l124 -124l260 260
q14 14 34 14t34 -14t14 -34t-14 -34z" />
    <glyph glyph-name="radio-off" unicode="&#xe688;" 
d="M512 869q-98 0 -188 -38.5t-155 -103.5t-103.5 -155t-38.5 -188t38.5 -188t103.5 -155t155 -103.5t188 -38.5t188 38.5t155 103.5t103.5 155t38.5 188t-38.5 188t-103.5 155t-155 103.5t-188 38.5zM512 -59q-90 0 -172 35t-141.5 94.5t-94.5 141.5t-35 172t35 172
t94.5 141.5t141.5 94.5t172 35t172 -35t141.5 -94.5t94.5 -141.5t35 -172t-35 -172t-94.5 -141.5t-141.5 -94.5t-172 -35z" />
    <glyph glyph-name="question" unicode="&#xe689;" 
d="M512 869q-98 0 -188 -38.5t-155 -103.5t-103.5 -155t-38.5 -188t38.5 -188t103.5 -155t155 -103.5t188 -38.5t188 38.5t155 103.5t103.5 155t38.5 188t-38.5 188t-103.5 155t-155 103.5t-188 38.5zM512 -59q-90 0 -172 35t-141.5 94.5t-94.5 141.5t-35 172t35 172
t94.5 141.5t141.5 94.5t172 35t172 -35t141.5 -94.5t94.5 -141.5t35 -172t-35 -172t-94.5 -141.5t-141.5 -94.5t-172 -35zM514 193q-29 -3 -32 -33q3 -29 32 -32q30 3 32 32q-3 30 -32 33v0zM611 603q-35 36 -100 36q-122 -4 -137 -127h40q7 89 97 94q97 -5 102 -107
q2 -56 -51 -94q-54 -41 -63 -64q-7 -14 -7 -44v-61q1 -8 6.5 -13t13.5 -5t13.5 5t6.5 13v31v39q1 11 6 21q5 14 41 43q78 52 72 126q0 70 -40 107v0z" />
    <glyph glyph-name="phonebook" unicode="&#xe68a;" 
d="M823 896h-563q-53 0 -90.5 -37.5t-37.5 -90.5v-107q0 -9 6 -15t14.5 -6t15 6t6.5 15v5v0v92q0 40 28 68t68 28h544q39 0 67.5 -28t28.5 -68v-748q0 -40 -28.5 -68t-67.5 -28h-544q-40 0 -68 28t-28 68v93v0v4q0 9 -6.5 15t-15 6t-14.5 -6t-6 -15v-107q0 -53 37.5 -90.5
t90.5 -37.5h563q53 0 90.5 37.5t37.5 90.5v768q0 53 -37.5 90.5t-90.5 37.5zM132 437v-118q0 -8 6 -14.5t14.5 -6.5t15 6.5t6.5 14.5v118q0 9 -6.5 15t-15 6t-14.5 -6t-6 -15v0zM304 135q0 -8 6 -14.5t14.5 -6.5t14.5 6.5t6 14.5q1 81 58 138.5t138.5 57.5t138.5 -57.5
t57 -138.5q0 -8 6.5 -14.5t15 -6.5t14.5 6.5t6 14.5q0 75 -42 135t-110 86q31 20 53.5 60t22.5 76q-1 67 -48 114t-113.5 47t-114 -47t-47.5 -114q0 -42 20.5 -78t55.5 -58q-63 -24 -107.5 -88.5t-44.5 -132.5v0zM422 492q0 50 35 85t84.5 35t84.5 -35t35 -84.5t-35 -84.5
t-84.5 -35t-84.5 35t-35 84v0zM94 512h118q8 0 14.5 6t6.5 15t-6.5 15t-14.5 6h-118q-9 0 -15 -6t-6 -15t6 -15t15 -6zM233 213q0 9 -6.5 15t-14.5 6h-118h-2q-9 0 -15 -6t-6 -15t6 -15t15 -6h2h118q8 0 14.5 6t6.5 15z" />
    <glyph glyph-name="radio-on" unicode="&#xe68b;" 
d="M512 869q-98 0 -188 -38.5t-155 -103.5t-103.5 -155t-38.5 -188t38.5 -188t103.5 -155t155 -103.5t188 -38.5t188 38.5t155 103.5t103.5 155t38.5 188t-38.5 188t-103.5 155t-155 103.5t-188 38.5zM512 -59q-90 0 -172 35t-141.5 94.5t-94.5 141.5t-35 172t35 172
t94.5 141.5t141.5 94.5t172 35t172 -35t141.5 -94.5t94.5 -141.5t35 -172t-35 -172t-94.5 -141.5t-141.5 -94.5t-172 -35zM728 564l-284 -316l-149 133q-6 6 -14 6q-9 0 -16 -7q-5 -6 -5 -14q0 -9 7 -16l164 -147q7 -6 15.5 -5.5t14.5 6.5l297 332q6 6 6 14t-6 14t-15 6
t-16 -6h1z" />
    <glyph glyph-name="radio" unicode="&#xe68c;" 
d="M512 869q-98 0 -188 -38.5t-155 -103.5t-103.5 -155t-38.5 -188t38.5 -188t103.5 -155t155 -103.5t188 -38.5t188 38.5t155 103.5t103.5 155t38.5 188t-38.5 188t-103.5 155t-155 103.5t-188 38.5zM512 -59q-90 0 -172 35t-141.5 94.5t-94.5 141.5t-35 172t35 172
t94.5 141.5t141.5 94.5t172 35t172 -35t141.5 -94.5t94.5 -141.5t35 -172t-35 -172t-94.5 -141.5t-141.5 -94.5t-172 -35zM512 384zM203 384q0 -128 90.5 -218.5t218.5 -90.5t218.5 90.5t90.5 218.5t-90.5 218.5t-218.5 90.5t-218.5 -90.5t-90.5 -218.5z" />
    <glyph glyph-name="scan" unicode="&#xe68d;" 
d="M87 814h277v42h-320v-301h43v259zM939 -44h-277v-42h320v301h-43v-259zM940 856h-259v-43h259v-277h42v320h-42zM86 234h-42v-320h301v43h-259v277zM44 410h938v-42h-938v42z" />
    <glyph glyph-name="search" unicode="&#xe68e;" 
d="M851 51q61 59 103.5 160t42.5 185v0q0 99 -38.5 188.5t-103.5 154.5t-155 103.5t-188 38.5t-188 -38.5t-155 -103.5t-103.5 -154.5t-38.5 -188t38.5 -188.5t103.5 -155t155 -103.5t188 -38.5v0q73 0 163 33t146 79l130 -130q5 -6 13.5 -6t14.5 6l1 1q6 6 6 14t-6 14z
M69 396q0 90 35 172t94.5 141.5t141.5 94.5t172 35t172 -35t141.5 -94.5t94.5 -141.5t35 -172t-35 -172t-94.5 -141.5t-141.5 -94.5t-172 -35t-172 35t-141.5 94.5t-94.5 141.5t-35 172v0z" />
    <glyph glyph-name="plane" unicode="&#xe68f;" 
d="M898 854q24 0 45.5 -16t32.5 -40q18 -45 -18 -81l-139 -139l-14 -14l2 -20l61 -502l-71 -71l-17 -16l-144 358l-24 58l-44 -44l-110 -110l-15 -15l3 -21l25 -172l-93 -93l-101 209l-6 13l-13 6l-216 105l94 94l173 -25l21 -3l15 15l110 110l44 44l-58 24l-359 144l14 14
l73 72l503 -59l20 -2l14 14l136 136l1 1l3 2q24 24 52 24v0zM379 -87h1v0h-1zM898 896q-45 0 -81 -36l-1 -1l-1 -1l-138 -138l-503 59q-3 1 -7 1q-16 0 -27 -12l-90 -89h1q-12 -12 -12 -28q0 -11 7 -21.5t18 -14.5l361 -146l-110 -110l-173 26h-6q-16 0 -28 -11l-96 -96
q-3 -3 -8 -11q-4 -8 -4 -18t6.5 -20t15.5 -15l218 -107l101 -210q4 -9 9 -13q11 -11 27 -11v0q17 0 28 11l95 95q13 12 13 29v6l-26 174l110 109l145 -358q3 -11 14 -19.5t23 -8.5q17 0 28 12l90 89h-1q12 12 12 28v5l-59 504l139 139q30 30 34 67.5t-12 68t-47 51.5t-65 21
z" />
    <glyph glyph-name="security" unicode="&#xe690;" 
d="M896 753q-4 0 -7 -1q-29 -6 -59 -6q-56 1 -109 19q-100 33 -186 114q-8 9 -21 9q-14 0 -24 -11q-32 -34 -86.5 -66.5t-99.5 -45.5q-62 -18 -116 -18h-2q-27 0 -52 5q-3 1 -6 1q-13 0 -22.5 -9.5t-9.5 -22.5v0v-362q0 -111 54 -209.5t145.5 -167t207.5 -100.5q4 -2 9 -2
t9 2q85 24 159 70t129.5 107.5t87 139t31.5 160.5v362q0 13 -9.5 22.5t-22.5 9.5v0zM886 359q0 -145 -104.5 -267t-269.5 -170q-168 47 -271 167.5t-103 269.5v350q23 -4 50 -4q60 0 128 20q47 13 105 47.5t93 69.5q90 -83 194 -117q62 -20 122 -20q30 0 56 5v-351zM706 531
l-226 -251l-112 100q-5 5 -12 5q-9 0 -15 -6t-6 -15q0 -8 5 -14l128 -115q6 -5 15 -4.5t14 6.5l240 266q6 6 6 14q0 9 -7 16q-6 5 -14 5q-10 0 -16 -7v0z" />
    <glyph glyph-name="success" unicode="&#xe691;" 
d="M531 -127h-1q-88 0 -194 44t-168 107q-62 62 -105.5 167t-43.5 192v5q0 103 41.5 197t110 162t163 108t197.5 40v0q126 0 257.5 -77.5t191.5 -186.5l8 -14l-401 -421q-10 -11 -27.5 -18.5t-32.5 -7.5v0q-15 0 -32.5 8t-27.5 19l-175 190q-4 6 -4 13q0 8 6 14.5t15 6.5
t15 -6l174 -190q12 -13 29 -13h1q17 0 29 13l379 399q-57 95 -175.5 162t-229.5 67v0q-95 0 -181.5 -37t-149.5 -99t-101 -148.5t-38 -181.5v-4q0 -80 40 -176.5t97 -152.5q57 -58 154.5 -98.5t177.5 -40.5h1h1q129 0 256 84t177 202q6 12 19 12q8 0 14.5 -6.5t6.5 -14.5
q0 -4 -1 -7q-36 -85 -112 -157t-172 -113.5t-188 -41.5h-1z" />
    <glyph glyph-name="telephone" unicode="&#xe692;" 
d="M241 825q30 0 91 -57t83 -109q16 -39 -2 -56q-22 -22 -63 -48q-21 -13 -31 -20.5t-20 -23.5t-10 -37q0 -23 9.5 -46t30.5 -50t37 -44t47.5 -48.5t48.5 -47.5t44 -37t50 -30.5t46 -9.5q21 0 37 10t23.5 20t20.5 31q26 41 48 63q10 9 22 9h2q14 0 32 -7q52 -22 109 -83
t57 -92q0 -21 -46 -68t-127 -101q-89 2 -236.5 76t-235 161.5t-161.5 235t-76 236.5q54 81 101 127t69 46zM241 867q-25 0 -55.5 -21t-60.5 -55.5t-51 -62t-40 -56.5l-5 -7v-10q0 -96 78 -252.5t172.5 -251t251 -172.5t252.5 -78h10l7 5q29 19 56.5 40t62 51t55.5 60.5
t21 55.5q0 46 -65 116.5t-127 95.5q-23 10 -48 11q-32 0 -53 -21q-26 -26 -54 -71q-16 -26 -24 -33.5t-22 -7.5q-22 0 -52 19t-50 37.5t-57 55.5t-55.5 57t-37.5 50t-19 52q0 14 7.5 22t33.5 24q45 28 71 54q37 37 10 101q-25 62 -95.5 127t-116.5 65z" />
    <glyph glyph-name="waiting" unicode="&#xe693;" 
d="M747 398h-196q-11 0 -18.5 7.5t-7.5 17.5v244q0 9 -5 15t-14 7h-2q-8 0 -14.5 -6t-6.5 -14v-292q0 -9 6.5 -15t14.5 -6h244v0q9 0 15 6t6 15v2q-1 8 -7.5 13.5t-14.5 5.5zM871 24q-97 -97 -228 -132t-262 0t-229 132q-73 73 -111 168t-38 191.5t38 191.5t111 168
q62 62 167 106t192 44q34 0 80 -7.5t78 -17.5q6 -2 10.5 -8t4.5 -12q0 -9 -6 -15t-15 -6q-3 0 -7 1q-29 9 -71.5 16t-73.5 7q-80 0 -176.5 -40t-152.5 -97q-90 -90 -122 -210t0 -240.5t121.5 -210t210 -121.5t240.5 0t210 122q57 56 97 152.5t40 176.5q0 40 -11 93.5
t-27 89.5q-1 4 -1 8q0 8 6 14t15 6q13 0 19 -11q17 -40 29 -98.5t12 -101.5q0 -87 -44 -192t-106 -167v0z" />
    <glyph glyph-name="supply" unicode="&#xe694;" 
d="M506 161v0q-8 0 -15 6q-6 7 -6 15.5t6 14.5q7 6 15.5 6t14.5 -6t6 -14.5t-6 -15t-15 -6.5v0zM506 269v0q-8 0 -14.5 6.5t-6.5 14.5v296v1q0 9 6.5 15t15 6t14.5 -6t6 -15v-1v-296q0 -8 -6 -14.5t-15 -6.5zM873 22q-98 -98 -229.5 -132.5t-263.5 0t-230 132.5
q-73 74 -111 169.5t-38 192.5t38 192.5t111 168.5q62 62 168 106t193 44q34 0 80.5 -7.5t78.5 -17.5q6 -2 10.5 -8t4.5 -13q0 -8 -6 -14.5t-15 -6.5q-4 0 -7 2q-30 9 -72.5 16t-73.5 7q-80 0 -177 -40.5t-154 -97.5q-90 -90 -122 -210.5t0 -241.5t122 -211t211 -122t241.5 0
t210.5 122q57 57 97.5 154t40.5 177q0 40 -11 94t-27 90q-1 4 -1 8q0 9 6 15t15 6q14 0 19 -12q17 -40 29 -98.5t12 -102.5q0 -87 -44 -193t-106 -167v-1z" />
    <glyph glyph-name="setting" unicode="&#xe695;" 
d="M559 832q17 0 20 -16l16 -99l4 -24l23 -8q14 -5 25 -11l22 -10l20 14l81 59q5 3 12 3q8 0 14 -5l67 -67q11 -12 2 -26l-59 -81l-14 -20l10 -22q6 -12 11 -25l8 -23l24 -4l99 -16q7 -1 11.5 -7t4.5 -13v0v-94q0 -17 -16 -20l-99 -16l-24 -4l-8 -23q-5 -13 -11 -25l-10 -22
l14 -20l59 -81q3 -5 3 -12q0 -8 -5 -14l-67 -67q-6 -5 -14 -5q-7 0 -12 3l-81 59l-20 14l-22 -10q-12 -6 -25 -11l-23 -8l-4 -24l-16 -99q-1 -7 -7 -11.5t-13 -4.5v0h-94v0q-7 0 -13 4.5t-7 11.5l-16 99l-4 24l-23 8q-13 5 -25 11l-22 10l-20 -14l-81 -59q-5 -3 -12 -3
q-8 0 -14 5l-67 67q-5 6 -5 14q0 7 3 12l59 81l14 20l-10 22q-6 12 -11 25l-8 23l-24 4l-99 16q-7 1 -11.5 7t-4.5 13v0v94q0 17 16 20l99 16l24 4l8 23q5 12 11 25l10 22l-14 20l-59 81q-3 5 -3 12q0 8 5 14l67 67q6 5 14 5q7 0 12 -3l81 -59l20 -14l22 10q12 6 25 11l23 8
l4 24l16 99q1 7 7 11.5t13 4.5v0h94zM559 874h-94q-22 0 -39.5 -15t-21.5 -36l-16 -99q-15 -5 -28 -12l-82 59q-16 11 -36 11q-25 0 -43 -18l-67 -67q-18 -18 -18 -43q0 -20 11 -36l59 -82q-6 -13 -12 -28l-99 -16q-21 -4 -36 -21.5t-15 -39.5v-94q0 -23 14.5 -40t36.5 -21
l99 -16q5 -14 12 -29l-59 -81q-11 -16 -11 -36q0 -25 18 -43l67 -67q18 -18 43 -18q20 0 36 11l82 59q13 -6 28 -12l16 -99q4 -22 21 -36.5t40 -14.5h94q22 0 39.5 15t21.5 36l16 99q15 6 28 12l82 -58q16 -12 36 -12q25 0 43 18l67 67q18 18 18 43q0 20 -11 36l-59 82
q7 14 12 28l99 16q21 4 36 21.5t15 39.5v94q0 22 -15 39.5t-36 21.5l-99 16q-5 15 -12 28l59 82q11 16 11 36q0 25 -18 43l-67 67q-18 18 -43 18q-20 0 -36 -11l-82 -59q-13 7 -28 12l-16 99q-4 21 -21.5 36t-39.5 15v0zM512 569q77 0 131 -54t54 -131t-54 -131t-131 -54
t-131 54t-54 131t54 131t131 54zM512 611q-94 -1 -160 -67t-67 -160q0 -94 66.5 -160.5t160.5 -66.5t160.5 66.5t66.5 160.5q-1 94 -67 160t-160 67z" />
    <glyph glyph-name="arrow-up" unicode="&#xe696;" 
d="M497 645l-423 -424q-6 -6 -6 -14.5t6 -14.5t15 -6t15 6l408 409l408 -409q7 -6 15.5 -6t14.5 6t6 14.5t-6 15.5l-423 423q-6 6 -15 6t-15 -6v0z" />
    <glyph glyph-name="arrow-down" unicode="&#xe697;" 
d="M527 123l423 424q6 6 6 14.5t-6 14.5t-15 6t-15 -6l-408 -409l-408 409q-7 6 -15.5 6t-14.5 -6t-6 -14.5t6 -15.5l423 -423q6 -6 15 -6t15 6v0z" />
    <glyph glyph-name="open-eye" unicode="&#xe698;" 
d="M992 352q10 0 0 0q6 6 6 13q15 22 0 51q0 3 -3 6.5t-3 6.5q-90 99 -215 158t-265 59t-266 -60t-220 -164q-7 -6 -7 -12q-9 -18 0 -45q0 -7 7 -7q93 -108 219 -169t267 -61t264 57t216 161v6zM512 192q-125 0 -234.5 51t-194.5 141q79 89 191 140.5t238 51.5
q125 0 234.5 -51t194.5 -141q-85 -90 -194.5 -141t-234.5 -51zM384 384q0 -53 37.5 -90.5t90.5 -37.5t90.5 37.5t37.5 90.5t-37.5 90.5t-90.5 37.5t-90.5 -37.5t-37.5 -90.5z" />
    <glyph glyph-name="close-eye" unicode="&#xe699;" 
d="M1005 365l-64 96l57 57q13 13 13 26q0 14 -8.5 23t-23.5 9q-13 0 -25 -13q-83 -93 -198.5 -145.5t-243.5 -52.5q-129 0 -243.5 54t-191.5 151q-13 6 -26 6q-14 0 -23 -9t-9 -23q0 -3 3.5 -9.5t3.5 -9.5q38 -39 64 -58l-64 -96q-22 -32 6 -51q27 -14 45 13l64 96
q77 -51 115 -64l-38 -103q-10 -28 19 -38t38 19l39 103q51 -20 166 -32v-96q0 -15 9 -23.5t23 -8.5t23 8.5t9 23.5v83q81 0 166 32l39 -103q4 -13 16 -18.5t22 -0.5q14 5 19.5 17t-0.5 22l-38 102q77 38 115 64l64 -96q23 -11 45 0q26 18 13 45z" />
    <glyph glyph-name="walsafe" unicode="&#xe69a;" 
d="M461 371q-10 -9 0 0v-6l51 -58h13l51 51v7v6l-58 51h-12zM576 506q-32 0 -45 -7v-13q47 -4 78 -41.5t31 -86.5q0 -52 -36.5 -90t-85.5 -38q-52 0 -86.5 37.5t-34.5 90.5q0 27 11 54t27 49q51 60 128 89q3 0 6.5 3.5t6.5 3.5q64 25 102 25q7 0 7 7q0 19 -16 35t-35 16h-20
q-85 -32 -147 -32q-38 0 -102 13q-26 13 -32 19q-7 0 -7 -6q5 -33 29 -59.5t55 -36.5v-7q-40 -24 -65 -69.5t-25 -96.5q0 -86 58 -145.5t140 -59.5t140.5 59.5t58.5 145.5q-5 59 -44.5 100t-96.5 41zM915 826q-49 32 -102 12h-7l-7 -3t-18 -6t-26 -6t-35 -2t-42.5 6
t-51 17.5t-56.5 32.5q-1 0 -22 9.5t-36 9.5q-14 0 -28.5 -5t-21.5 -9l-8 -5q-41 -27 -80.5 -42.5t-66.5 -19t-49.5 -2t-33 5.5t-13.5 7h-6q-63 20 -103 -20q-38 -28 -38 -83v-358q7 -59 29 -116t51 -100.5t65.5 -84t68.5 -67.5t63.5 -49.5t46.5 -31.5t22 -12q42 -32 102 -32
q51 0 90 19q6 3 16.5 9t42.5 27.5t62 46.5t68.5 67t69.5 89t58.5 112t40.5 136v352q0 60 -45 96zM570 -51q-24 -15 -62 -13.5t-66 19.5q-6 3 -16.5 9.5t-41 27.5t-58.5 44t-63.5 60t-62 75.5t-47 90t-25.5 103.5v358q0 26 13 39q13 6 32 6h13l9 -3.5t23 -6.5t34 -5.5
t45.5 -0.5t54.5 9t64 23.5t70 41.5q3 0 11 3t15 3l19 -6q47 -33 93.5 -50t79 -20t62 2t43.5 11t23 12q19 6 45 -7q19 -19 19 -44v-346q-12 -61 -36 -118t-53 -99t-61 -78t-63.5 -61t-55.5 -42t-40.5 -27z" />
    <glyph glyph-name="shield" unicode="&#xe69b;" 
d="M762 460q0 1 -1 4t-5 11t-10 14.5t-17 12.5t-25 8q-18 3 -34 -4t-23 -15l-7 -8q-9 -12 -12 -26t-1 -23l1 -8q5 -19 5 -38q0 -70 -49.5 -119t-119 -49t-118.5 49t-49 118.5t49 119t119 49.5q22 0 44 -6q13 -4 25 -1q7 2 13 5.5t9 7.5l4 3q1 2 3.5 5.5t6.5 15.5t-1 23
q-6 23 -30 33q-6 2 -12 3h-14q-35 0 -68 -9q-81 -21 -137.5 -95t-56.5 -157q0 -108 76.5 -184.5t184.5 -76.5t184.5 76.5t76.5 184.5q0 34 -9 67zM465 466h-1q-3 0 -5 -3l-70 -70q-2 -2 -2 -5v0q0 -3 2 -6l70 -69q2 -3 5 -3h1v0q3 0 5 3l70 69q2 3 2 6v0q0 3 -2 5l-70 70
q-2 3 -5 3v0zM896 753q-4 0 -7 -1q-29 -6 -58 -6h-1q-53 0 -109 19q-100 33 -186 114q-8 9 -21 9v0q-14 0 -24 -11q-32 -34 -86.5 -66.5t-99.5 -45.5q-57 -17 -116 -18q-30 0 -54 5q-4 1 -7 1q-13 0 -22 -9.5t-9 -22.5v0v-362q0 -111 54 -209.5t145.5 -167t207.5 -100.5
q4 -2 9 -2t9 2q85 24 159 70t129.5 107.5t87 139t31.5 160.5v362q0 13 -9.5 22.5t-22.5 9.5v0zM886 359q0 -145 -104.5 -267t-269.5 -170q-168 47 -271 167.5t-103 269.5v350q23 -4 50 -4q60 0 128 20q47 14 105 48t93 69q90 -82 194 -117q62 -20 122 -20q30 0 56 5v-351z
" />
    <glyph glyph-name="logo" unicode="&#xe69d;" 
d="M1002 532q-1 4 -2.5 9.5t-9.5 21t-19 28t-33 24.5t-49 17q-23 3 -44.5 -1.5t-35.5 -12.5t-25 -17.5t-16.5 -16t-5.5 -7.5q-10 -14 -16.5 -31t-8 -30.5t-1 -24.5t1.5 -18l2 -6q8 -37 8 -74q0 -90 -44 -165.5t-119.5 -119.5t-165.5 -44q-104 0 -197 71t-120 171
q-11 42 -11 85q0 90 44 165.5t119.5 119.5t165.5 44q43 0 85 -11q26 -7 50 -2q13 3 25.5 11t18.5 14l6 6q2 2 4 4.5t7 12t7.5 18.5t4.5 24t-4 29q-12 44 -59 64q-11 4 -24 5t-27 1q-68 0 -134 -18q-103 -27 -190.5 -103t-138.5 -180.5t-51 -210.5q0 -104 40.5 -199
t109 -163.5t163.5 -109t199 -40.5t199 40.5t163.5 109t109 163.5t40.5 199q0 76 -22 148zM419 544v0q-7 0 -11 -5l-137 -136q-4 -5 -4 -11.5t4 -10.5l137 -137q4 -5 10.5 -5t11.5 5l136 137q5 4 5 11v0q0 6 -5 11l-136 136q-5 5 -11 5v0z" />
    <glyph glyph-name="plus" unicode="&#xe69c;" 
d="M874 874h-724q-53 0 -90.5 -37.5t-37.5 -90.5v-724q0 -53 37.5 -90.5t90.5 -37.5h724q53 0 90.5 37.5t37.5 90.5v724q0 53 -37.5 90.5t-90.5 37.5zM984 28q0 -47 -33 -80t-80 -33h-719q-46 0 -78.5 32.5t-32.5 78.5v714q0 47 34 81t81 34h710q49 0 83.5 -34.5t34.5 -83.5
v-709v0zM714 406h-186v-30h186q21 0 21 15t-21 15zM516 618q-14 0 -14 -20v-192h-192q-21 0 -21 -15t21 -15h192v-183q0 -21 13 -21t13 21v405v0q0 20 -12 20z" />
  </font>
</defs>
</svg>
